Coordinates
version=1
nRows=22
nColumns=24
inDegrees=yes

Units are S.I. units (second, meters, Newtons, ...)
Angles are in degrees.

endheader
time	pelvis_tilt	pelvis_list	pelvis_rotation	pelvis_tx	pelvis_ty	pelvis_tz	hip_flexion_r	hip_adduction_r	hip_rotation_r	knee_angle_r	ankle_angle_r	subtalar_angle_r	mtp_angle_r	hip_flexion_l	hip_adduction_l	hip_rotation_l	knee_angle_l	ankle_angle_l	subtalar_angle_l	mtp_angle_l	lumbar_extension	lumbar_bending	lumbar_rotation
      5.45000000	      2.34888328	     -7.32320067	      1.84288421	      2.58580326	      0.70719967	     -0.13221668	     -1.91721190	     13.24275442	     16.04575287	     -5.13935897	     11.05411197	    -16.47618965	      0.00000000	     24.48470723	     -0.85123921	      3.42167851	    -73.26871466	      2.40657254	    -13.82855418	      0.00000000	    -15.56400093	      8.10116416	     -3.31029801
      5.46000000	      2.17883178	     -6.77880361	      1.48933998	      2.59834418	      0.70758009	     -0.13223160	     -3.28438619	     12.56742904	     16.86826340	     -4.47151723	     11.54381781	    -16.75298448	      0.00000000	     26.10331113	     -0.05971652	      3.36597552	    -71.72903220	      2.58792557	    -15.92739161	      0.00000000	    -15.53853407	      7.39284101	     -2.92129470
      5.47000000	      2.12443504	     -6.27221138	      1.21439269	      2.61069930	      0.70780650	     -0.13237061	     -4.72640026	     11.91021783	     17.67706676	     -3.83125256	     11.98610172	    -17.09119271	      0.00000000	     27.45342283	      0.67297123	      3.45533609	    -69.78148597	      2.73387536	    -17.57930004	      0.00000000	    -15.73937842	      6.75938896	     -2.66175213
      5.48000000	      2.04347015	     -5.83269670	      0.90138365	      2.62297100	      0.70773219	     -0.13248011	     -6.05769250	     11.32298163	     18.27012183	     -3.30057230	     12.50934227	    -17.23989086	      0.00000000	     28.65613600	      1.26586160	      3.61691715	    -67.43327001	      2.94967769	    -18.66390742	      0.00000000	    -15.95107346	      6.19155793	     -2.35398148
      5.49000000	      1.79804570	     -5.53789178	      0.66032141	      2.63518057	      0.70712483	     -0.13266266	     -7.11641193	     10.90659320	     18.62774410	     -2.90949401	     13.09775149	    -17.21427734	      0.00000000	     29.89411409	      1.69289171	      4.00581124	    -64.75383994	      3.42797242	    -18.96382827	      0.00000000	    -15.97086461	      5.80157196	     -2.19797785
      5.50000000	      1.87920702	     -5.21669753	      0.22174269	      2.64735480	      0.70673837	     -0.13276028	     -8.52233813	     10.41227198	     19.20454196	     -2.54828252	     13.70646555	    -17.17555149	      0.00000000	     30.48459658	      2.00256662	      4.23007444	    -61.51353833	      3.63808462	    -19.40227378	      0.00000000	    -16.46594249	      5.36639491	     -1.78108710
      5.51000000	      1.69415728	     -5.03489322	     -0.08669927	      2.65965508	      0.70568328	     -0.13296744	     -9.58060506	     10.10099965	     19.55768185	     -2.29615609	     14.33113925	    -17.17937442	      0.00000000	     31.19118898	      2.18033126	      4.73792496	    -57.93842787	      4.16775552	    -19.10173241	      0.00000000	    -16.54439310	      5.12621345	     -1.62031822
      5.52000000	      1.72752997	     -4.88434246	     -0.51215719	      2.67196580	      0.70473634	     -0.13315717	    -10.88433457	      9.76278041	     20.05733380	     -2.04702873	     14.90526362	    -17.03649132	      0.00000000	     31.37102994	      2.23065883	      5.27471271	    -53.86224713	      4.79986186	    -18.48133341	      0.00000000	    -16.94818771	      4.91257039	     -1.26123359
      5.53000000	      1.44413592	     -4.78792235	     -0.83610174	      2.68447224	      0.70317073	     -0.13344812	    -11.81488677	      9.51072780	     20.42542027	     -1.87628793	     15.51621233	    -16.95228913	      0.00000000	     31.65544773	      2.27500492	      6.14389859	    -49.35752282	      5.36844797	    -17.72782524	      0.00000000	    -16.85836423	      4.77714920	     -1.14299579
      5.54000000	      1.69837529	     -4.70000573	     -1.28696576	      2.69706113	      0.70215703	     -0.13359823	    -13.33652030	      9.20405354	     20.80379894	     -1.72823532	     16.11438731	    -16.57913288	      0.00000000	     30.97661296	      2.14910856	      7.00158134	    -44.24613454	      6.24861876	    -16.62675617	      0.00000000	    -17.46066641	      4.60630749	     -0.76757074
      5.55000000	      1.82615058	     -4.56666313	     -1.68264723	      2.70995723	      0.70089092	     -0.13386422	    -14.73869018	      8.83298803	     21.04003257	     -1.58105757	     16.71375037	    -16.10022869	      0.00000000	     30.05849721	      2.10945418	      8.32223137	    -38.54329328	      6.84796226	    -15.81691664	      0.00000000	    -17.82040578	      4.39197105	     -0.58209881
      5.56000000	      2.05277018	     -4.42044285	     -2.10570069	      2.72310409	      0.69965273	     -0.13416609	    -16.24341099	      8.40330836	     21.22503977	     -1.48772680	     17.34646725	    -15.39986258	      0.00000000	     28.58235521	      2.06144335	     10.33425319	    -32.18874965	      6.98529483	    -15.67872223	      0.00000000	    -18.25180786	      4.15081497	     -0.39295657
      5.57000000	      2.31755487	     -4.30874830	     -2.66126504	      2.73671777	      0.69837708	     -0.13439490	    -17.82310893	      7.92391754	     21.45060972	     -1.41315550	     17.90301347	    -14.48515557	      0.00000000	     26.49541921	      1.86805513	     13.50923390	    -25.07730265	      6.06383668	    -17.34042751	      0.00000000	    -18.61745172	      3.92935005	     -0.07045693
      5.58000000	      2.81909856	     -4.22221270	     -3.25534476	      2.75092394	      0.69712695	     -0.13440993	    -19.71879386	      7.40564741	     21.66756492	     -1.33008905	     18.44436730	    -13.40200356	      0.00000000	     23.45540706	      1.36959809	     19.00466533	    -17.05209513	      2.74391390	    -22.76106145	      0.00000000	    -19.14179517	      3.64891228	      0.19143095
      5.59000000	      2.75791045	     -4.93275680	     -3.91308390	      2.76504433	      0.69461643	     -0.13343602	    -20.91112440	      7.84927954	     22.16655347	     -1.58358846	     18.70341972	    -12.49510087	      0.00000000	     21.25336539	     -0.74436785	     24.76904962	     -9.41949022	     -1.59660002	    -29.36154769	      0.00000000	    -19.01776405	      4.15694777	      0.74982177
      5.60000000	      2.02897522	     -6.24764733	     -4.31716022	      2.77872493	      0.69094485	     -0.13218967	    -21.23433815	      9.17538360	     22.42392991	     -2.20123352	     18.71891069	    -11.66638688	      0.00000000	     20.85408405	     -3.67025250	     27.31655686	     -3.59732821	     -3.15633276	    -31.32149440	      0.00000000	    -18.22698761	      5.39269645	      1.27543471
      5.61000000	      1.32692000	     -7.44597810	     -4.54787753	      2.79259829	      0.68730070	     -0.13134709	    -21.53513053	     10.40249312	     22.43624549	     -2.94601589	     18.85068487	    -10.50586429	      0.00000000	     20.89508715	     -6.14168157	     27.76752246	      0.93248007	     -3.11903748	    -30.81776834	      0.00000000	    -17.45565576	      6.56654670	      1.43478167
      5.62000000	      0.77099003	     -8.33601944	     -4.91338373	      2.80699222	      0.68418995	     -0.13084438	    -21.92459212	     11.18987271	     22.21792670	     -3.82520861	     18.98844022	     -8.92490613	      0.00000000	     20.86237085	     -7.91276074	     26.63002175	      4.39510313	     -2.39440017	    -29.46858085	      0.00000000	    -16.77558946	      7.45178577	      1.64960064
      5.63000000	      0.54740526	     -8.83916325	     -5.09469405	      2.82178306	      0.68174184	     -0.13088150	    -22.45785320	     11.59624672	     21.11611112	     -4.99524462	     19.35029632	     -6.62136434	      0.00000000	     20.59347393	     -8.83484122	     25.05236390	      6.70919267	     -1.19342533	    -27.71886054	      0.00000000	    -16.42235754	      7.90955560	      1.62370676
      5.64000000	      0.47909371	     -9.01389328	     -5.38564507	      2.83698800	      0.67988627	     -0.13113770	    -22.99317217	     11.56876307	     19.95056621	     -6.39346344	     19.51228211	     -4.30025719	      0.00000000	     20.14406708	     -9.17027917	     23.46996444	      8.05698225	     -0.62795456	    -27.31612560	      0.00000000	    -16.19357536	      7.99712050	      1.62515598
      5.65000000	      0.48531115	     -8.96875067	     -5.67718123	      2.85236106	      0.67846206	     -0.13160736	    -23.32088894	     11.31523145	     18.47234732	     -8.21394465	     19.49038941	     -1.90251904	      0.00000000	     19.73714820	     -9.06083457	     22.18301952	      8.36966130	     -0.57931109	    -27.97255915	      0.00000000	    -16.03581857	      7.84307302	      1.66789163
      5.66000000	      0.52254770	     -8.59839376	     -5.92473205	      2.86799932	      0.67738105	     -0.13234022	    -23.41307659	     10.72586660	     16.71693049	    -10.39083311	     19.22510512	      0.49301457	      0.00000000	     19.46693342	     -8.39658190	     21.05628976	      7.70713358	     -1.11530778	    -29.40148061	      0.00000000	    -15.83406819	      7.32733239	      1.60621902
